<svg version="1.1" id="Layer_1" xmlns="http://www.w3.org/2000/svg" xmlns:xlink="http://www.w3.org/1999/xlink" x="0px" y="0px"
	 width="100%" viewBox="0 0 182 140" enable-background="new 0 0 182 140" xml:space="preserve">
<path fill="#FEFEFD" opacity="1.000000" stroke="none" 
	d="
M134.000000,141.000000 
	C89.333336,141.000000 45.166676,141.000000 1.000012,141.000000 
	C1.000008,94.333344 1.000008,47.666687 1.000004,1.000024 
	C61.666645,1.000016 122.333290,1.000016 182.999954,1.000008 
	C182.999969,47.666641 182.999969,94.333282 182.999985,140.999969 
	C166.833328,141.000000 150.666672,141.000000 134.000000,141.000000 
M132.091705,91.336998 
	C132.105637,81.337944 131.986938,71.336212 132.188522,61.340946 
	C132.291885,56.215050 135.793686,52.345913 139.755981,52.233913 
	C143.593796,52.125431 147.113785,56.091358 147.537643,61.151768 
	C147.690155,62.972553 147.573929,64.816147 147.574173,66.649338 
	C147.575470,76.280754 147.574783,85.912170 147.574783,95.587021 
	C152.835434,95.587021 157.580658,95.587021 162.487274,95.587021 
	C162.487274,82.687340 163.101517,70.024391 162.313766,57.449265 
	C161.533157,44.988235 149.804810,36.938198 137.816467,39.924004 
	C133.936615,40.890316 130.386185,43.179211 126.497612,44.948399 
	C121.263542,40.040359 115.029297,38.181042 107.519173,39.810616 
	C102.932701,40.805805 98.117676,40.783913 93.397858,41.111702 
	C91.310333,41.256687 89.204376,41.136154 87.241516,41.136154 
	C87.241516,59.737446 87.241516,77.649994 87.241516,95.527481 
	C92.312668,95.527481 97.046028,95.527481 101.987175,95.527481 
	C101.987175,92.705017 101.984245,90.217636 101.987709,87.730270 
	C102.000008,78.897789 101.884186,70.062393 102.081734,61.234024 
	C102.184486,56.641991 106.462997,52.089718 109.933205,52.287800 
	C113.999962,52.519939 117.033783,56.409607 117.141991,61.549545 
	C117.166534,62.715626 117.145821,63.882660 117.145821,65.049255 
	C117.145836,75.167114 117.145828,85.284973 117.145828,95.863258 
	C121.422569,95.863258 125.225266,95.683228 129.001678,95.920799 
	C131.968719,96.107460 132.337997,94.589668 132.091705,91.336998 
M76.851845,80.123550 
	C80.699997,68.316086 80.694099,56.966808 71.389267,47.568321 
	C62.369370,38.457634 51.477077,38.084003 39.987122,42.249371 
	C39.177505,42.542877 38.203793,42.486568 37.314377,42.440067 
	C32.290524,42.177402 27.269114,41.868034 22.146427,41.568710 
	C22.146427,64.459625 22.146427,86.538139 22.146427,108.753799 
	C27.279501,108.753799 32.178936,108.753799 37.501095,108.753799 
	C37.501095,103.241531 37.501095,97.970047 37.501095,92.559784 
	C55.521397,98.986862 68.595680,94.949104 76.851845,80.123550 
z"/>
<path fill="#868e96" opacity="1.000000" stroke="none" 
	d="
M132.091644,91.817184 
	C132.337997,94.589668 131.968719,96.107460 129.001678,95.920799 
	C125.225266,95.683228 121.422569,95.863258 117.145828,95.863258 
	C117.145828,85.284973 117.145836,75.167114 117.145821,65.049255 
	C117.145821,63.882660 117.166534,62.715626 117.141991,61.549545 
	C117.033783,56.409607 113.999962,52.519939 109.933205,52.287800 
	C106.462997,52.089718 102.184486,56.641991 102.081734,61.234024 
	C101.884186,70.062393 102.000008,78.897789 101.987709,87.730270 
	C101.984245,90.217636 101.987175,92.705017 101.987175,95.527481 
	C97.046028,95.527481 92.312668,95.527481 87.241516,95.527481 
	C87.241516,77.649994 87.241516,59.737446 87.241516,41.136154 
	C89.204376,41.136154 91.310333,41.256687 93.397858,41.111702 
	C98.117676,40.783913 102.932701,40.805805 107.519173,39.810616 
	C115.029297,38.181042 121.263542,40.040359 126.497612,44.948399 
	C130.386185,43.179211 133.936615,40.890316 137.816467,39.924004 
	C149.804810,36.938198 161.533157,44.988235 162.313766,57.449265 
	C163.101517,70.024391 162.487274,82.687340 162.487274,95.587021 
	C157.580658,95.587021 152.835434,95.587021 147.574783,95.587021 
	C147.574783,85.912170 147.575470,76.280754 147.574173,66.649338 
	C147.573929,64.816147 147.690155,62.972553 147.537643,61.151768 
	C147.113785,56.091358 143.593796,52.125431 139.755981,52.233913 
	C135.793686,52.345913 132.291885,56.215050 132.188522,61.340946 
	C131.986938,71.336212 132.105637,81.337944 132.091644,91.817184 
z"/>
<path fill="#868e96" opacity="1.000000" stroke="none" 
	d="
M76.671974,80.462212 
	C68.595680,94.949104 55.521397,98.986862 37.501095,92.559784 
	C37.501095,97.970047 37.501095,103.241531 37.501095,108.753799 
	C32.178936,108.753799 27.279501,108.753799 22.146427,108.753799 
	C22.146427,86.538139 22.146427,64.459625 22.146427,41.568710 
	C27.269114,41.868034 32.290524,42.177402 37.314377,42.440067 
	C38.203793,42.486568 39.177505,42.542877 39.987122,42.249371 
	C51.477077,38.084003 62.369370,38.457634 71.389267,47.568321 
	C80.694099,56.966808 80.699997,68.316086 76.671974,80.462212 
M52.092186,82.916206 
	C53.362213,82.561668 54.699085,82.357330 55.890858,81.826958 
	C61.484756,79.337509 64.390198,72.498764 63.208897,64.818390 
	C62.155045,57.966640 58.309509,53.693264 52.486954,52.903568 
	C43.561546,51.693035 38.159126,56.560570 37.480968,66.423820 
	C36.761192,76.892387 41.633717,82.723755 52.092186,82.916206 
z"/>
<path fill="#F9FBFA" opacity="1.000000" stroke="none" 
	d="
M51.679199,82.919006 
	C41.633717,82.723755 36.761192,76.892387 37.480968,66.423820 
	C38.159126,56.560570 43.561546,51.693035 52.486954,52.903568 
	C58.309509,53.693264 62.155045,57.966640 63.208897,64.818390 
	C64.390198,72.498764 61.484756,79.337509 55.890858,81.826958 
	C54.699085,82.357330 53.362213,82.561668 51.679199,82.919006 
z"/>
</svg>