<?xml version="1.0" encoding="iso-8859-1"?>
<!-- Generator: Adobe Illustrator 26.0.1, SVG Export Plug-In . SVG Version: 6.00 Build 0)  -->
<svg version="1.1" id="Outline" xmlns="http://www.w3.org/2000/svg" xmlns:xlink="http://www.w3.org/1999/xlink"
 width="50px" height="50px" viewBox="0 0 80 80" preserveAspectRatio="xMidYMid meet">
<g fill="#a0a0a0" stroke="none">
	<path d="M55,15H9c-3.859,0-7,3.14-7,7v20c0,3.86,3.141,7,7,7h46c3.859,0,7-3.14,7-7V22C62,18.14,58.859,15,55,15z M60,42
		c0,2.757-2.243,5-5,5H9c-2.757,0-5-2.243-5-5V22c0-2.757,2.243-5,5-5h46c2.757,0,5,2.243,5,5V42z"/>
	<path d="M55,19H9c-1.654,0-3,1.346-3,3v20c0,1.654,1.346,3,3,3h46c1.654,0,3-1.346,3-3V22C58,20.346,56.654,19,55,19z M9,21h46
		c0.552,0,1,0.449,1,1v3H8v-3C8,21.449,8.448,21,9,21z M56,27v10H8V27H56z M55,43H9c-0.552,0-1-0.449-1-1v-3h48v3
		C56,42.551,55.552,43,55,43z"/>
	<path d="M20,24h2c0.553,0,1-0.448,1-1s-0.447-1-1-1h-2c-0.553,0-1,0.448-1,1S19.447,24,20,24z"/>
	<path d="M42,24h2c0.553,0,1-0.448,1-1s-0.447-1-1-1h-2c-0.553,0-1,0.448-1,1S41.447,24,42,24z"/>
	<path d="M22,40h-2c-0.553,0-1,0.448-1,1s0.447,1,1,1h2c0.553,0,1-0.448,1-1S22.553,40,22,40z"/>
	<path d="M44,40h-2c-0.553,0-1,0.448-1,1s0.447,1,1,1h2c0.553,0,1-0.448,1-1S44.553,40,44,40z"/>
	<rect x="1000" y="31" />
	<path d="M15,36c2.206,0,4-1.794,4-4s-1.794-4-4-4s-4,1.794-4,4S12.794,36,15,36z M15,30c1.103,0,2,0.897,2,2s-0.897,2-2,2
		s-2-0.897-2-2S13.897,30,15,30z"/>
	<path d="M24,36c2.206,0,4-1.794,4-4s-1.794-4-4-4s-4,1.794-4,4S21.794,36,24,36z M24,30c1.103,0,2,0.897,2,2s-0.897,2-2,2
		s-2-0.897-2-2S22.897,30,24,30z"/>
	<path d="M40,36c2.206,0,4-1.794,4-4s-1.794-4-4-4s-4,1.794-4,4S37.794,36,40,36z M40,30c1.103,0,2,0.897,2,2s-0.897,2-2,2
		s-2-0.897-2-2S38.897,30,40,30z"/>
	<path d="M49,36c2.206,0,4-1.794,4-4s-1.794-4-4-4s-4,1.794-4,4S46.794,36,49,36z M49,30c1.103,0,2,0.897,2,2s-0.897,2-2,2
		s-2-0.897-2-2S47.897,30,49,30z"/>
</g>
</svg>
